<svg xmlns="http://www.w3.org/2000/svg" viewBox="0 0 527.66 175.3"><title>NGO-FULL</title><path d="M568.53,437.41h6.3c4.17,0,6.93,1.62,6.93,5.55v.3a4.46,4.46,0,0,1-3,4.65,4.5,4.5,0,0,1,3.21,4.68v.24c0,4-2.73,5.73-6.9,5.73h-6.51Zm2.94,9.33h4c2,0,3.33-1,3.33-3.06v-.42c0-2.4-1.71-3-4.08-3h-3.27Zm3.78,2.34h-3.78v6.66H575c2.34,0,4.08-.72,4.08-3.21v-.39C579,449.92,577.41,449.08,575.25,449.08Z" transform="translate(-358.15 -334.43)" fill="#207654"/><path d="M587.73,441.7v11.19a3.56,3.56,0,0,0,7.11,0V441.7h2.82v10.8a6,6,0,0,1-6.36,6.36c-3.93,0-6.36-2.52-6.36-6.36V441.7Z" transform="translate(-358.15 -334.43)" fill="#207654"/><path d="M602.58,439.24a1.77,1.77,0,1,1,1.77-1.77A1.75,1.75,0,0,1,602.58,439.24Zm-1.41,19.32V441.7H604v16.86Z" transform="translate(-358.15 -334.43)" fill="#207654"/><path d="M610.62,436v22.56H607.8V436Z" transform="translate(-358.15 -334.43)" fill="#207654"/><path d="M614,452.23V448c0-4.2,2.1-6.54,5.49-6.54,2.55,0,3.81,1.17,4.29,2.28V436h2.94v22.56h-2.64v-2.31c-.63,1.23-1.77,2.58-4.59,2.58C616.14,458.83,614,456.52,614,452.23Zm9.93-.36v-3.6c0-2.91-1.32-4.44-3.54-4.44s-3.57,1.68-3.57,4.59v3.45c0,3,1.23,4.65,3.57,4.65S624,454.9,624,451.87Z" transform="translate(-358.15 -334.43)" fill="#207654"/><path d="M632,439.24a1.77,1.77,0,1,1,1.77-1.77A1.75,1.75,0,0,1,632,439.24Zm-1.41,19.32V441.7h2.79v16.86Z" transform="translate(-358.15 -334.43)" fill="#207654"/><path d="M647.1,458.56v-10.2c0-2.82-.9-4.53-3.57-4.53S640,445.3,640,448.51v10.05H637.2V441.7h2.64v2.37a4.91,4.91,0,0,1,4.59-2.58c3.39,0,5.49,2.34,5.49,6.54v10.53Z" transform="translate(-358.15 -334.43)" fill="#207654"/><path d="M653.07,452.23V448c0-4.11,2-6.48,5.19-6.48,2.55,0,4.35,1.17,4.86,2.49V441.7h2.64v17c0,4.05-1.41,6.24-6.3,6.24s-6.18-2.46-6.18-5H656c0,1.44.93,2.82,3.45,2.82s3.51-1.17,3.51-3.45v-3a4.57,4.57,0,0,1-4.44,2.58C655.17,458.83,653.07,456.49,653.07,452.23Zm9.9-.12v-4.29c0-2.67-1.38-4-3.54-4s-3.54,1.59-3.54,4.59V452c0,3.06,1.2,4.65,3.54,4.65S663,455.11,663,452.11Z" transform="translate(-358.15 -334.43)" fill="#207654"/><path d="M686.16,458.56v-10.2c0-2.82-.9-4.53-3.57-4.53s-3.54,1.47-3.54,4.68v10.05h-2.79V441.7h2.64v2.37a4.91,4.91,0,0,1,4.59-2.58c3.39,0,5.49,2.34,5.49,6.54v10.53Z" transform="translate(-358.15 -334.43)" fill="#207654"/><path d="M704.82,450.91h-9.9v1.89a3.43,3.43,0,0,0,3.57,3.72c2.1,0,3.54-1.29,3.54-3.15v-.27h2.79v.12c0,3.09-2.34,5.64-6.33,5.64s-6.36-2.58-6.36-6.63v-4.08c0-4.11,2.34-6.69,6.36-6.69s6.33,2.4,6.33,6.54Zm-9.9-2H702v-1.05c0-2.79-1.35-4-3.54-4s-3.57,1.29-3.57,3.75Z" transform="translate(-358.15 -334.43)" fill="#207654"/><path d="M715.11,444.13h-3.69v7.77c0,4,.15,4.47,3.84,4.26v2.55a15.4,15.4,0,0,1-1.59.09c-4.35,0-5.07-2.49-5.07-6.51v-8.16h-1.68l0-2.13c1.89,0,2.79-.9,2.79-3.66h1.74v3.39h3.69Z" transform="translate(-358.15 -334.43)" fill="#207654"/><path d="M731.88,454.18l3.3-12.48h2.94l-4.8,16.86h-2.73l-3.15-12-3.18,12h-2.73l-4.77-16.86h3L723,454.15l3.21-12.45h2.46Z" transform="translate(-358.15 -334.43)" fill="#207654"/><path d="M739.47,452.14v-4c0-4,2.31-6.63,6.36-6.63s6.33,2.61,6.33,6.63v4c0,4.14-2.37,6.72-6.33,6.72S739.47,456.28,739.47,452.14Zm2.79-4.32v4.68c0,2.49,1.41,3.81,3.57,3.81s3.54-1.32,3.54-3.81v-4.68c0-2.43-1.44-3.75-3.54-3.75S742.26,445.39,742.26,447.82Z" transform="translate(-358.15 -334.43)" fill="#207654"/><path d="M763.14,441.49v2.79h-.33c-2.76,0-4.41,1.53-4.41,4.53v9.75h-2.79V441.7h2.64v3.06a4.54,4.54,0,0,1,4.38-3.27Z" transform="translate(-358.15 -334.43)" fill="#207654"/><path d="M775.47,458.56l-4.86-7.26H769v7.26h-2.82V436H769v12.93h1.62l4.83-7.23h3.33l-5.91,8.37c2,2.85,4,5.67,6,8.49Z" transform="translate(-358.15 -334.43)" fill="#207654"/><path d="M789.36,447.25c0-2.58-1.23-3.48-3.54-3.48-2.1,0-3.15.87-3.15,2.31,0,4.08,9.51,1.77,9.51,7.92,0,3.15-2.16,4.95-6.24,4.95s-6.51-2.31-6.51-6.09h2.79a3.4,3.4,0,0,0,3.72,3.69c1.95,0,3.42-1,3.42-2.58,0-3.69-9.45-1.56-9.45-7.83,0-3,2.19-4.77,5.91-4.77,4.08,0,6.18,2,6.18,5.88Z" transform="translate(-358.15 -334.43)" fill="#207654"/><path d="M801.48,452.23V448c0-4.32,2.22-6.57,5.46-6.57a4.92,4.92,0,0,1,4.59,2.58V441.7h2.64v16.86h-2.64v-2.31a4.87,4.87,0,0,1-4.59,2.58C803.58,458.83,801.48,456.49,801.48,452.23Zm9.9-.39v-3.57c0-2.94-1.32-4.47-3.54-4.47s-3.54,1.59-3.54,4.59v3.45c0,3.06,1.2,4.65,3.54,4.65S811.38,454.87,811.38,451.84Z" transform="translate(-358.15 -334.43)" fill="#207654"/><path d="M827.52,448.27c0-2.76-1.14-4.17-3.54-4.17s-3.57,1.32-3.57,4.47v3.69c0,2.46,1.17,4,3.57,4s3.54-1.44,3.54-4.2h2.79c0,4.2-2.25,6.78-6.33,6.78s-6.36-2.58-6.36-6.63v-4c0-4.14,2.34-6.72,6.36-6.72s6.33,2.49,6.33,6.78Z" transform="translate(-358.15 -334.43)" fill="#207654"/><path d="M841.14,441.49v2.79h-.33c-2.76,0-4.41,1.53-4.41,4.53v9.75h-2.79V441.7h2.64v3.06a4.54,4.54,0,0,1,4.38-3.27Z" transform="translate(-358.15 -334.43)" fill="#207654"/><path d="M842.64,452.14v-4c0-4,2.31-6.63,6.36-6.63s6.33,2.61,6.33,6.63v4c0,4.14-2.37,6.72-6.33,6.72S842.64,456.28,842.64,452.14Zm2.79-4.32v4.68c0,2.49,1.41,3.81,3.57,3.81s3.54-1.32,3.54-3.81v-4.68c0-2.43-1.44-3.75-3.54-3.75S845.43,445.39,845.43,447.82Z" transform="translate(-358.15 -334.43)" fill="#207654"/><path d="M867.9,447.25c0-2.58-1.23-3.48-3.54-3.48-2.1,0-3.15.87-3.15,2.31,0,4.08,9.51,1.77,9.51,7.92,0,3.15-2.16,4.95-6.24,4.95s-6.51-2.31-6.51-6.09h2.79a3.4,3.4,0,0,0,3.72,3.69c1.95,0,3.42-1,3.42-2.58,0-3.69-9.45-1.56-9.45-7.83,0-3,2.19-4.77,5.91-4.77,4.08,0,6.18,2,6.18,5.88Z" transform="translate(-358.15 -334.43)" fill="#207654"/><path d="M883,447.25c0-2.58-1.23-3.48-3.54-3.48-2.1,0-3.15.87-3.15,2.31,0,4.08,9.51,1.77,9.51,7.92,0,3.15-2.16,4.95-6.24,4.95s-6.51-2.31-6.51-6.09h2.79a3.4,3.4,0,0,0,3.72,3.69c1.95,0,3.42-1,3.42-2.58,0-3.69-9.45-1.56-9.45-7.83,0-3,2.19-4.77,5.91-4.77,4.08,0,6.18,2,6.18,5.88Z" transform="translate(-358.15 -334.43)" fill="#207654"/><path d="M567.75,488.23V484c0-4.2,2.1-6.54,5.49-6.54,2.55,0,3.81,1.17,4.29,2.28V472h2.94v22.56h-2.64v-2.31c-.63,1.23-1.77,2.58-4.59,2.58C569.85,494.83,567.75,492.52,567.75,488.23Zm9.93-.36v-3.6c0-2.91-1.32-4.44-3.54-4.44s-3.57,1.68-3.57,4.59v3.45c0,3,1.23,4.65,3.57,4.65S577.68,490.9,577.68,487.87Z" transform="translate(-358.15 -334.43)" fill="#207654"/><path d="M596.61,486.91h-9.9v1.89a3.43,3.43,0,0,0,3.57,3.72c2.1,0,3.54-1.29,3.54-3.15v-.27h2.79v.12c0,3.09-2.34,5.64-6.33,5.64s-6.36-2.58-6.36-6.63v-4.08c0-4.11,2.34-6.69,6.36-6.69s6.33,2.4,6.33,6.54Zm-9.9-2h7.11v-1.05c0-2.79-1.35-4-3.54-4s-3.57,1.29-3.57,3.75Z" transform="translate(-358.15 -334.43)" fill="#207654"/><path d="M603.57,494.56l-5.7-16.86H601l4,13.08,4-13.08h3.12l-5.67,16.86Z" transform="translate(-358.15 -334.43)" fill="#207654"/><path d="M626,486.91h-9.9v1.89a3.43,3.43,0,0,0,3.57,3.72c2.1,0,3.54-1.29,3.54-3.15v-.27H626v.12c0,3.09-2.34,5.64-6.33,5.64s-6.36-2.58-6.36-6.63v-4.08c0-4.11,2.34-6.69,6.36-6.69S626,479.86,626,484Zm-9.9-2h7.11v-1.05c0-2.79-1.35-4-3.54-4s-3.57,1.29-3.57,3.75Z" transform="translate(-358.15 -334.43)" fill="#207654"/><path d="M632.07,472v22.56h-2.82V472Z" transform="translate(-358.15 -334.43)" fill="#207654"/><path d="M635.52,488.14v-4c0-4,2.31-6.63,6.36-6.63s6.33,2.61,6.33,6.63v4c0,4.14-2.37,6.72-6.33,6.72S635.52,492.28,635.52,488.14Zm2.79-4.32v4.68c0,2.49,1.41,3.81,3.57,3.81s3.54-1.32,3.54-3.81v-4.68c0-2.43-1.44-3.75-3.54-3.75S638.31,481.39,638.31,483.82Z" transform="translate(-358.15 -334.43)" fill="#207654"/><path d="M664.38,485.05v3.15c0,4.23-2.1,6.57-5.49,6.57a4.58,4.58,0,0,1-4.44-2.43v7.89h-2.79V477.7h2.64v2.4a4.92,4.92,0,0,1,4.59-2.61C662.49,477.49,664.38,480,664.38,485.05Zm-9.93-.69v3.48c0,3,1.26,4.59,3.54,4.59s3.57-1.59,3.57-4.59v-3.36c0-3-1.23-4.65-3.57-4.65S654.45,481.39,654.45,484.36Z" transform="translate(-358.15 -334.43)" fill="#207654"/><path d="M670.62,477.7v2a4.1,4.1,0,0,1,3.84-2.19,4.42,4.42,0,0,1,4.2,2.7,4.77,4.77,0,0,1,4.53-2.7c2.94,0,4.53,2.19,4.53,6v11.1H684.9V483c0-2.07-1-3.24-2.82-3.24s-2.82,1.11-2.82,3.12v11.73h-2.82V483c0-2.19-1.05-3.24-2.82-3.24s-2.85,1.08-2.85,3.12v11.73H668V477.7Z" transform="translate(-358.15 -334.43)" fill="#207654"/><path d="M703.56,486.91h-9.9v1.89a3.43,3.43,0,0,0,3.57,3.72c2.1,0,3.54-1.29,3.54-3.15v-.27h2.79v.12c0,3.09-2.34,5.64-6.33,5.64s-6.36-2.58-6.36-6.63v-4.08c0-4.11,2.34-6.69,6.36-6.69s6.33,2.4,6.33,6.54Zm-9.9-2h7.11v-1.05c0-2.79-1.35-4-3.54-4s-3.57,1.29-3.57,3.75Z" transform="translate(-358.15 -334.43)" fill="#207654"/><path d="M716.76,494.56v-10.2c0-2.82-.9-4.53-3.57-4.53s-3.54,1.47-3.54,4.68v10.05h-2.79V477.7h2.64v2.37a4.91,4.91,0,0,1,4.59-2.58c3.39,0,5.49,2.34,5.49,6.54v10.53Z" transform="translate(-358.15 -334.43)" fill="#207654"/><path d="M730.17,480.13h-3.69v7.77c0,4,.15,4.47,3.84,4.26v2.55a15.4,15.4,0,0,1-1.59.09c-4.35,0-5.07-2.49-5.07-6.51v-8.16H722l0-2.13c1.89,0,2.79-.9,2.79-3.66h1.74v3.39h3.69Z" transform="translate(-358.15 -334.43)" fill="#207654"/><path d="M751.68,494.56l-8.52-15.18v15.18h-2.94V473.41H743l8.52,15.24V473.41h3v21.15Z" transform="translate(-358.15 -334.43)" fill="#207654"/><path d="M769.5,480.19c-.06-2.85-1.83-4.32-4.14-4.32-2.61,0-4.08,1.59-4.08,5.37v6.39c0,2.91,1.83,4.38,4.08,4.38s4.14-1.5,4.14-4.38v-.78h-4.11v-2.61h7.05v3.3c0,4.32-2.91,7.32-7.08,7.32s-7-3-7-7.32v-7.17c0-4.32,2.88-7.35,7-7.35s7,3,7.08,7.17Z" transform="translate(-358.15 -334.43)" fill="#207654"/><path d="M775.74,487.51V480.4c0-4.32,2.88-7.35,7-7.35s7.08,3,7.08,7.35v7.11c0,4.32-2.94,7.32-7.08,7.32S775.74,491.83,775.74,487.51Zm11.16.12v-7.35c0-2.91-1.8-4.41-4.11-4.41a4,4,0,0,0-4.11,4.38v7.35c0,2.91,1.8,4.41,4.11,4.41A4,4,0,0,0,786.9,487.63Z" transform="translate(-358.15 -334.43)" fill="#207654"/><path d="M802.59,483.25c0-2.58-1.23-3.48-3.54-3.48-2.1,0-3.15.87-3.15,2.31,0,4.08,9.51,1.77,9.51,7.92,0,3.15-2.16,4.95-6.24,4.95s-6.51-2.31-6.51-6.09h2.79a3.4,3.4,0,0,0,3.72,3.69c2,0,3.42-1,3.42-2.58,0-3.69-9.45-1.56-9.45-7.83,0-3,2.19-4.77,5.91-4.77,4.08,0,6.18,2,6.18,5.88Z" transform="translate(-358.15 -334.43)" fill="#207654"/><path d="M587.74,334.43a41.62,41.62,0,1,0,41.62,41.62A41.61,41.61,0,0,0,587.74,334.43Zm0,62.43a20.81,20.81,0,1,1,20.81-20.81A20.81,20.81,0,0,1,587.74,396.86Z" transform="translate(-358.15 -334.43)" fill="#207654"/><path d="M441.38,409.34V376.05a41.62,41.62,0,1,0-83.23,0v33.29H379V376.05a20.81,20.81,0,1,1,41.61,0v33.29Z" transform="translate(-358.15 -334.43)" fill="#207654"/><path d="M493.75,334.43a41.62,41.62,0,1,0,41.62,41.62A41.61,41.61,0,0,0,493.75,334.43Zm.6,62.43a20.81,20.81,0,1,1,20.81-20.81A20.81,20.81,0,0,1,494.35,396.86Z" transform="translate(-358.15 -334.43)" fill="#207654"/><path d="M493.75,426.49a41.62,41.62,0,1,0,41.62,41.62A41.61,41.61,0,0,0,493.75,426.49Zm.6,62.43a20.81,20.81,0,1,1,20.81-20.81A20.81,20.81,0,0,1,494.35,488.92Z" transform="translate(-358.15 -334.43)" fill="#207654"/><rect x="126.69" y="72.63" width="17.84" height="32.07" fill="#207654"/><path d="M671.75,371.2c-1,0-1.66.67-1.66,2.21v5.33c0,1.54.68,2.16,1.66,2.16s1.7-.65,1.7-2.19v-5.3C673.45,371.85,672.79,371.2,671.75,371.2Z" transform="translate(-358.15 -334.43)" fill="#f8af3f"/><path d="M705.53,371a1.6,1.6,0,0,0-1.69,1.8V375h3.35v-1.8C707.19,371.56,706.54,371,705.53,371Z" transform="translate(-358.15 -334.43)" fill="#f8af3f"/><path d="M681.73,334.43a41.62,41.62,0,1,0,41.62,41.62A41.61,41.61,0,0,0,681.73,334.43Zm-26.91,42.65h-6.25v2.36a1.67,1.67,0,0,0,1.69,1.75,1.53,1.53,0,0,0,1.67-1.59v-.26h2.89v.08c0,2.39-1.69,4.16-4.56,4.16s-4.58-1.82-4.58-4.76v-5.41c0-3,1.67-4.82,4.58-4.82s4.56,1.77,4.56,4.84Zm7.85,6.29-2.16-4.68-2.1,4.68h-3.23l3.75-7.49-3.51-7.1h3.22l1.9,4.21,1.87-4.21h3.28l-3.54,7.1,3.75,7.49Zm13.69-4.27c0,3.1-1.43,4.43-3.62,4.43a3,3,0,0,1-2.62-1.28v6.14H667.2V368.78h2.73v1.27a3.19,3.19,0,0,1,2.81-1.46c2.19,0,3.62,1.3,3.62,4.43Zm4.92,4.27h-2.92V363.7h2.92Zm11.05-4.6c0,3-1.69,4.84-4.55,4.84s-4.58-1.85-4.58-4.84v-5.39c0-2.89,1.67-4.76,4.58-4.76s4.55,1.87,4.55,4.76Zm7.78-7.26h-.39c-2.08,0-2.62,1.09-2.62,3.48v8.38h-2.89V368.78h2.73v1.45c.23-.78,1.2-1.61,2.94-1.61h.23Zm10,5.57h-6.24v2.36a1.66,1.66,0,0,0,1.69,1.75,1.52,1.52,0,0,0,1.66-1.59v-.26h2.89v.08c0,2.39-1.69,4.16-4.55,4.16s-4.58-1.82-4.58-4.76v-5.41c0-3,1.66-4.82,4.58-4.82s4.55,1.77,4.55,4.84Zm7.31-5.57c-2.08,0-2.63,1.09-2.63,3.48v8.38h-2.88V368.78h2.73v1.45c.23-.78,1.19-1.61,2.94-1.61h.23v2.89Z" transform="translate(-358.15 -334.43)" fill="#f8af3f"/><path d="M687.78,371.22a1.61,1.61,0,0,0-1.69,1.8v6.16a1.68,1.68,0,1,0,3.36,0V373A1.6,1.6,0,0,0,687.78,371.22Z" transform="translate(-358.15 -334.43)" fill="#f8af3f"/><path d="M650.26,371a1.61,1.61,0,0,0-1.69,1.8V375h3.36v-1.8C651.93,371.56,651.28,371,650.26,371Z" transform="translate(-358.15 -334.43)" fill="#f8af3f"/></svg>