<svg xmlns="http://www.w3.org/2000/svg" viewBox="0 0 365.2 175.3"><title>NGO-HORIZONTAL-WHITE</title><path d="M587.74,334.43a41.62,41.62,0,1,0,41.62,41.62A41.61,41.61,0,0,0,587.74,334.43Zm0,62.43a20.81,20.81,0,1,1,20.81-20.81A20.81,20.81,0,0,1,587.74,396.86Z" transform="translate(-358.15 -334.43)" fill="#fff"/><path d="M441.38,409.34V376.05a41.62,41.62,0,1,0-83.23,0v33.29H379V376.05a20.81,20.81,0,1,1,41.61,0v33.29Z" transform="translate(-358.15 -334.43)" fill="#fff"/><path d="M493.75,334.43a41.62,41.62,0,1,0,41.62,41.62A41.61,41.61,0,0,0,493.75,334.43Zm.6,62.43a20.81,20.81,0,1,1,20.81-20.81A20.81,20.81,0,0,1,494.35,396.86Z" transform="translate(-358.15 -334.43)" fill="#fff"/><path d="M493.75,426.49a41.62,41.62,0,1,0,41.62,41.62A41.61,41.61,0,0,0,493.75,426.49Zm.6,62.43a20.81,20.81,0,1,1,20.81-20.81A20.81,20.81,0,0,1,494.35,488.92Z" transform="translate(-358.15 -334.43)" fill="#fff"/><rect x="126.69" y="72.63" width="17.84" height="32.07" fill="#fff"/><path d="M671.75,371.2c-1,0-1.66.67-1.66,2.21v5.33c0,1.54.68,2.16,1.66,2.16s1.7-.65,1.7-2.19v-5.3C673.45,371.85,672.79,371.2,671.75,371.2Z" transform="translate(-358.15 -334.43)" fill="#f8af3f"/><path d="M705.53,371a1.6,1.6,0,0,0-1.69,1.8V375h3.35v-1.8C707.19,371.56,706.54,371,705.53,371Z" transform="translate(-358.15 -334.43)" fill="#f8af3f"/><path d="M681.73,334.43a41.62,41.62,0,1,0,41.62,41.62A41.61,41.61,0,0,0,681.73,334.43Zm-26.91,42.65h-6.25v2.36a1.67,1.67,0,0,0,1.69,1.75,1.53,1.53,0,0,0,1.67-1.59v-.26h2.89v.08c0,2.39-1.69,4.16-4.56,4.16s-4.58-1.82-4.58-4.76v-5.41c0-3,1.67-4.82,4.58-4.82s4.56,1.77,4.56,4.84Zm7.85,6.29-2.16-4.68-2.1,4.68h-3.23l3.75-7.49-3.51-7.1h3.22l1.9,4.21,1.87-4.21h3.28l-3.54,7.1,3.75,7.49Zm13.69-4.27c0,3.1-1.43,4.43-3.62,4.43a3,3,0,0,1-2.62-1.28v6.14H667.2V368.78h2.73v1.27a3.19,3.19,0,0,1,2.81-1.46c2.19,0,3.62,1.3,3.62,4.43Zm4.92,4.27h-2.92V363.7h2.92Zm11.05-4.6c0,3-1.69,4.84-4.55,4.84s-4.58-1.85-4.58-4.84v-5.39c0-2.89,1.67-4.76,4.58-4.76s4.55,1.87,4.55,4.76Zm7.78-7.26h-.39c-2.08,0-2.62,1.09-2.62,3.48v8.38h-2.89V368.78h2.73v1.45c.23-.78,1.2-1.61,2.94-1.61h.23Zm10,5.57h-6.24v2.36a1.66,1.66,0,0,0,1.69,1.75,1.52,1.52,0,0,0,1.66-1.59v-.26h2.89v.08c0,2.39-1.69,4.16-4.55,4.16s-4.58-1.82-4.58-4.76v-5.41c0-3,1.66-4.82,4.58-4.82s4.55,1.77,4.55,4.84Zm7.31-5.57c-2.08,0-2.63,1.09-2.63,3.48v8.38h-2.88V368.78h2.73v1.45c.23-.78,1.19-1.61,2.94-1.61h.23v2.89Z" transform="translate(-358.15 -334.43)" fill="#f8af3f"/><path d="M687.78,371.22a1.61,1.61,0,0,0-1.69,1.8v6.16a1.68,1.68,0,1,0,3.36,0V373A1.6,1.6,0,0,0,687.78,371.22Z" transform="translate(-358.15 -334.43)" fill="#f8af3f"/><path d="M650.26,371a1.61,1.61,0,0,0-1.69,1.8V375h3.36v-1.8C651.93,371.56,651.28,371,650.26,371Z" transform="translate(-358.15 -334.43)" fill="#f8af3f"/></svg>