<?xml version="1.0" encoding="utf-8"?>
<!-- Generator: Adobe Illustrator 15.0.0, SVG Export Plug-In  -->
<!DOCTYPE svg PUBLIC "-//W3C//DTD SVG 1.1//EN" "http://www.w3.org/Graphics/SVG/1.1/DTD/svg11.dtd" [
	<!ENTITY ns_flows "http://ns.adobe.com/Flows/1.0/">
]>
<svg version="1.1"
	 xmlns="http://www.w3.org/2000/svg" xmlns:xlink="http://www.w3.org/1999/xlink" xmlns:a="http://ns.adobe.com/AdobeSVGViewerExtensions/3.0/"
	 x="0px" y="0px" width="267px" height="75px" viewBox="0 -9.404 267 75"
	 overflow="visible" enable-background="new 0 -9.404 267 75" xml:space="preserve">
<defs>
</defs>
<rect width="100%" height="100%" fill="rgb(16, 155, 216)"/>
<path fill="#FFFFFF" d="M91.826,45.209c-2.703,0-4.895,2.148-4.895,4.803c0,2.656,2.189,4.805,4.895,4.805s4.898-2.146,4.898-4.805
	C96.725,47.359,94.531,45.209,91.826,45.209"/>
<path fill="#FFFFFF" d="M91.826,30.137c-2.703,0-4.895,2.154-4.895,4.805c0,2.654,2.189,4.807,4.895,4.807s4.898-2.15,4.898-4.807
	C96.725,32.291,94.531,30.137,91.826,30.137"/>
<path fill="#FFFFFF" d="M91.828,15.074c-2.707,0-4.895,2.146-4.895,4.799c0,2.654,2.188,4.807,4.895,4.807
	c2.705,0,4.896-2.15,4.896-4.807C96.725,17.221,94.533,15.074,91.828,15.074"/>
<path fill="#FFFFFF" d="M91.826,0c-2.703,0-4.895,2.148-4.895,4.807c0,2.65,2.189,4.805,4.895,4.805s4.898-2.152,4.898-4.805
	C96.725,2.15,94.531,0,91.826,0"/>
<path fill="#FFFFFF" d="M23.273,54.814C10.096,54.814,3.391,48.467,0,40.6l6.012-6.045c2.932,7.182,9.479,11.418,17.418,11.418
	c7.629,0,9.635-4.236,9.635-6.654c0-12.555-31.135-1.967-31.135-24.123c0-7.406,5.545-15.193,19.727-15.193
	c8.863,0,16.34,3.779,21.887,11.189l-6.705,6.199C31.523,9.908,25.359,8.771,21.43,8.771c-5.627,0-8.018,3.328-8.018,5.822
	c0,10.734,31.597,1.664,31.597,24.121C45.004,45.139,40.15,54.814,23.273,54.814"/>
<path fill="#FFFFFF" d="M49.941,53.684v-2.799h5.934c2.234,0,3.934-0.684,3.934-4.387V8.316c0-3.705-1.695-4.385-3.934-4.385h-5.934
	V1.135h27.434v2.797h-5.934c-2.234,0-3.932,0.605-3.932,4.385v38.182c0,3.779,1.695,4.387,3.932,4.387h5.934v2.799H49.941
	L49.941,53.684z"/>
<path fill="#FFFFFF" d="M133.018,4.164h-6.627c-2.002,0-2.771,0.375-2.771,3.318v39.545c0,2.877,1.152,3.635,2.926,3.635h5.938
	c7.014,0,17.957-2.877,17.957-22.836C150.436,10.812,140.414,4.164,133.018,4.164 M133.096,53.684h-26.435v-2.799h5.547
	c2.236,0,3.855-0.754,3.855-4.387V8.316c0-3.855-1.619-4.385-3.855-4.385h-5.547V1.135h26.205c11.48,0,25.738,8.314,25.738,26.082
	C158.605,36.67,152.747,53.684,133.096,53.684"/>
<rect x="168.176" y="1.475" fill="#FFFFFF" width="0.545" height="51.863"/>
<path fill="#FFFFFF" d="M185.352,6.266h-0.525c0.4-1.98,0.648-3.189-1.396-3.189h-0.566l-2.008,7.697
	c-0.102,0.426,0.064,0.654,0.539,0.654h1.104l-0.137,0.545h-5.014l0.148-0.545h1.107c0.564,0,0.778-0.287,0.914-0.801l1.969-7.553
	h-0.57c-2.049,0-2.518,1.383-3.07,3.189h-0.525l0.98-3.736h8.031L185.352,6.266z"/>
<path fill="#FFFFFF" d="M190.939,12.174c-0.873,0-1.26-0.816-1.26-1.578c0-1.043,1.148-3.281,1.148-4.166
	c0-0.23-0.225-0.436-0.459-0.436c-0.979,0-1.717,1.318-2.324,2.906c-0.375,1.006-0.721,2.012-1.039,3.066h-1.247l2.604-8.734
	c0.043-0.135,0.096-0.365,0.096-0.518c0-0.395-0.523-0.42-0.812-0.42c-0.373,0-0.748,0.025-1.119,0.041l0.123-0.52
	c1.162-0.012,2.342-0.096,3.504-0.188c-0.566,1.668-1.109,3.342-1.635,5.025c0.441-0.68,1.162-1.494,2.062-1.494
	c0.814,0,1.451,0.773,1.451,1.533c0,0.939-1.18,3.287-1.18,4.154c0,0.191,0.074,0.504,0.318,0.504c0.693,0,1.387-1.789,1.566-2.277
	h0.607C193.072,10.057,192.229,12.174,190.939,12.174"/>
<path fill="#FFFFFF" d="M197.502,5.818c-1.036,0-1.814,1.604-2.117,2.514C196.49,8.295,198,7.721,198,6.416
	C198,6.117,197.848,5.818,197.502,5.818 M195.994,12.174c-1.438,0-2.199-1.398-2.199-2.666c0-1.83,1.803-4.303,3.725-4.303
	c0.914,0,1.551,0.625,1.551,1.387c0,1.789-2.408,2.309-3.852,2.336c-0.068,0.381-0.105,0.775-0.105,1.139
	c0,0.695,0.273,1.455,1.104,1.455c1.128,0,2.036-1.293,2.358-2.227h0.592C198.721,10.732,197.682,12.174,195.994,12.174"/>
<path fill="#FFFFFF" d="M207.641,12.174c-2.363,0-3.57-1.141-4.184-2.555l1.08-1.086c0.525,1.293,1.705,2.053,3.133,2.053
	c1.367,0,1.729-0.76,1.729-1.195c0-2.256-5.592-0.352-5.592-4.338c0-1.328,0.996-2.727,3.545-2.727c1.592,0,2.934,0.678,3.932,2.014
	l-1.207,1.111c-0.953-1.346-2.062-1.551-2.766-1.551c-1.018,0-1.443,0.602-1.443,1.049c0,1.928,5.68,0.299,5.68,4.334
	C211.545,10.434,210.672,12.174,207.641,12.174"/>
<path fill="#FFFFFF" d="M217.539,11.971V7.35c0-0.445-0.357-0.924-0.926-0.924c-0.762,0-1.551,0.967-1.551,2.611v2.934h-2.076V2.525
	h2.076v3.617c0.348-0.506,0.994-1.088,2.033-1.088c1.771,0,2.521,1.316,2.521,1.85v5.066H217.539L217.539,11.971z"/>
<path fill="#FFFFFF" d="M224.41,6.184c-0.816,0-1.178,0.748-1.273,1.697h2.229C225.457,6.861,225.227,6.184,224.41,6.184
	 M224.574,12.174c-2.422,0-3.52-1.48-3.52-3.465c0-1.531,0.943-3.656,3.326-3.656c1.965,0,3.127,1.66,2.99,3.631l-0.279,0.27h-3.984
	c0.066,1.309,0.621,1.961,1.512,1.961c1.021,0,1.41-0.52,1.426-1.172l1.387,0.229C227.219,11.252,226.4,12.174,224.574,12.174"/>
<path fill="#FFFFFF" d="M239.113,5.246h2.088v6.729h-2.088V5.246z M239.113,2.525h2.088v2.018h-2.088V2.525z M237.561,4.008
	c-0.277-0.297-0.689-0.541-1.037-0.541c-0.352,0-0.6,0.176-0.6,0.611c0,0.281,0.072,0.666,0.227,1.168h1.928v1.355h-1.803v5.369
	h-2.092V6.602h-2.756v5.369h-2.092V6.602h-1.354V5.246h1.256c-0.066-0.381-0.096-0.801-0.096-1.004c0-1.332,0.871-2.025,2.271-2.025
	c0.861,0,1.51,0.311,2.035,0.896l-0.734,0.896c-0.273-0.299-0.691-0.541-1.037-0.541c-0.334,0-0.582,0.174-0.582,0.611
	c0,0.281,0.059,0.666,0.209,1.166h2.781c-0.082-0.379-0.109-0.799-0.109-1.004c0-1.332,0.889-2.023,2.287-2.023
	c0.854,0,1.512,0.311,2.035,0.896L237.561,4.008z"/>
<path fill="#FFFFFF" d="M246.088,6.184c-0.812,0-1.18,0.748-1.271,1.697h2.229C247.139,6.861,246.91,6.184,246.088,6.184
	 M246.254,12.174c-2.422,0-3.516-1.48-3.516-3.465c0-1.531,0.939-3.656,3.322-3.656c1.969,0,3.131,1.66,2.986,3.631l-0.275,0.27
	h-3.986c0.07,1.309,0.625,1.961,1.51,1.961c1.025,0,1.416-0.52,1.428-1.172l1.389,0.229
	C248.904,11.252,248.082,12.174,246.254,12.174"/>
<rect x="250.535" y="2.525" fill="#FFFFFF" width="2.08" height="9.447"/>
<path fill="#FFFFFF" d="M257.803,6.279c-0.832,0-1.562,0.869-1.562,2.32c0,1.279,0.498,2.395,1.562,2.395
	c1.021,0,1.469-0.83,1.469-2.311C259.271,7.379,258.826,6.279,257.803,6.279 M259.395,11.971v-0.805
	c-0.402,0.625-0.996,1.008-2.01,1.008c-2.301,0-3.24-1.74-3.24-3.479c0-1.531,1.137-3.641,3.49-3.641
	c0.541,0,1.221,0.246,1.682,0.844V2.525h2.088v9.445H259.395L259.395,11.971z"/>
<rect x="177.818" y="16.359" fill="#FFFFFF" width="2.232" height="9.443"/>
<path fill="#FFFFFF" d="M186.541,25.801v-4.619c0-0.449-0.359-0.926-0.928-0.926c-0.76,0-1.551,0.969-1.551,2.609v2.936h-2.076
	v-6.725h1.939v1.152c0.271-0.557,0.938-1.346,2.172-1.346c1.771,0,2.52,1.318,2.52,1.85v5.066L186.541,25.801L186.541,25.801z"/>
<path fill="#FFFFFF" d="M192.936,26.002c-1.939,0-2.742-0.541-3.311-1.926l1.176-0.611c0.471,1.004,1.303,1.277,1.992,1.277
	c0.973,0,1.205-0.436,1.205-0.684c0-1.209-4.016-0.217-4.016-3.148c0-0.803,0.584-2.025,2.756-2.025
	c1.469,0,2.426,0.598,2.939,1.561l-0.998,0.732c-0.654-0.92-1.363-1.096-1.914-1.096c-0.623,0-0.939,0.35-0.939,0.648
	c0,1.275,4.068,0.178,4.068,3.184C195.896,24.906,195.109,26.002,192.936,26.002"/>
<path fill="#FFFFFF" d="M200.166,25.977c-1.688,0-2.289-0.854-2.289-1.588v-3.953h-1.424v-1.357h1.424v-2.477h2.08v2.477h1.846
	v1.357h-1.846v3.23c0,0.545,0.191,0.938,0.932,0.938c0.314,0,1.023-0.137,1.217-0.178v1.227
	C201.756,25.801,201.109,25.977,200.166,25.977"/>
<path fill="#FFFFFF" d="M203.141,25.803h2.092v-6.727h-2.092V25.803z M203.141,18.371h2.092v-2.016h-2.092V18.371z"/>
<path fill="#FFFFFF" d="M209.943,25.977c-1.689,0-2.289-0.854-2.289-1.588v-3.953h-1.424v-1.357h1.424v-2.477h2.078v2.477h1.844
	v1.357h-1.844v3.23c0,0.545,0.191,0.938,0.93,0.938c0.318,0,1.027-0.137,1.221-0.178v1.227
	C211.535,25.801,210.881,25.977,209.943,25.977"/>
<path fill="#FFFFFF" d="M217.432,25.801v-1.156c-0.29,0.547-1.055,1.348-2.285,1.348c-1.854,0-2.41-1.186-2.41-1.832v-5.082h2.078
	v4.615c0,0.488,0.275,0.926,0.93,0.926c0.762,0,1.533-0.908,1.533-2.178v-3.365h2.094v6.725H217.432L217.432,25.801z"/>
<path fill="#FFFFFF" d="M224.047,25.977c-1.688,0-2.285-0.854-2.285-1.588v-3.953h-1.428v-1.357h1.428v-2.477h2.076v2.477h1.844
	v1.357h-1.844v3.23c0,0.545,0.193,0.938,0.932,0.938c0.318,0,1.023-0.137,1.219-0.178v1.227
	C225.641,25.801,224.99,25.977,224.047,25.977"/>
<path fill="#FFFFFF" d="M229.811,20.014c-0.814,0-1.184,0.746-1.275,1.697h2.229C230.861,20.689,230.629,20.014,229.811,20.014
	 M229.973,26.002c-2.42,0-3.516-1.48-3.516-3.463c0-1.535,0.938-3.654,3.32-3.654c1.971,0,3.133,1.656,2.992,3.629l-0.279,0.27
	h-3.986c0.07,1.309,0.625,1.959,1.51,1.959c1.027,0,1.414-0.52,1.43-1.172l1.387,0.232
	C232.621,25.082,231.803,26.002,229.973,26.002"/>
<path fill="#FFFFFF" d="M242.24,17.512c-0.426,0-0.703-0.27-0.703-0.676c0-0.301,0.137-0.668,0.357-0.871
	c-0.953-0.055-1.246,1.113-1.455,1.861c-0.139,0.463-0.248,0.922-0.359,1.385h1.842l-0.18,0.609h-1.799
	c-0.357,1.336-0.654,2.678-1.016,4.01c-0.414,1.479-1.344,5.174-3.348,5.174c-0.723,0-1.275-0.475-1.275-1.193
	c0-0.463,0.291-0.979,0.818-0.979c0.424,0,0.719,0.342,0.719,0.746c0,0.207-0.127,0.557-0.205,0.748
	c1.037,0,1.467-1.889,1.604-2.619c0.334-1.932,0.746-4.014,1.344-5.887h-1.646l0.18-0.609h1.646c0.475-1.385,1.43-3.857,3.188-3.857
	c0.68,0,1.23,0.518,1.23,1.184C243.18,17.094,242.811,17.512,242.24,17.512"/>
<path fill="#FFFFFF" d="M245.049,19.633c-1.215,0-2.395,1.902-2.395,4.361c0,0.908,0.539,1.426,1.246,1.426
	c1.66,0,2.328-2.826,2.328-4.104C246.23,20.598,245.953,19.633,245.049,19.633 M243.859,26.002c-1.604,0-2.463-1.422-2.463-2.662
	c0-2.076,1.715-4.305,3.59-4.305c1.463,0,2.445,1.26,2.445,3.059C247.432,24.021,245.953,26.002,243.859,26.002"/>
<path fill="#FFFFFF" d="M253.967,21.111c-0.48,0-0.775-0.514-0.637-1.043c-0.65,0.438-1.775,2.078-2.771,5.732h-1.245
	c0.969-3.137,1.553-5.148,1.553-5.68c0-0.164-0.111-0.326-0.351-0.326c-0.679,0-1.438,1.457-1.675,2.176h-0.639
	c0.305-1.223,1.244-2.881,2.551-2.881c0.873,0,1.232,0.816,1.021,1.998c0.773-1.373,1.482-2.094,2.189-2.094
	c0.564,0,0.896,0.422,0.896,0.865C254.865,20.68,254.453,21.111,253.967,21.111"/>
<rect x="177.818" y="30.188" fill="#FFFFFF" width="2.232" height="9.443"/>
<path fill="#FFFFFF" d="M186.541,39.631V35.01c0-0.443-0.359-0.924-0.928-0.924c-0.76,0-1.551,0.967-1.551,2.609v2.936h-2.076
	v-6.729h1.939v1.158c0.271-0.559,0.938-1.348,2.172-1.348c1.771,0,2.52,1.32,2.52,1.852v5.064L186.541,39.631L186.541,39.631z"/>
<path fill="#FFFFFF" d="M193.23,39.809c-1.688,0-2.287-0.854-2.287-1.588v-3.955h-1.426V32.91h1.426v-2.477h2.078v2.477h1.844v1.355
	h-1.844V37.5c0,0.543,0.189,0.936,0.93,0.936c0.318,0,1.027-0.135,1.219-0.18v1.223C194.824,39.629,194.17,39.809,193.23,39.809"/>
<path fill="#FFFFFF" d="M198.988,33.844c-0.812,0-1.176,0.746-1.273,1.701h2.23C200.039,34.521,199.809,33.844,198.988,33.844
	 M199.156,39.836c-2.422,0-3.518-1.482-3.518-3.465c0-1.535,0.941-3.656,3.324-3.656c1.967,0,3.127,1.66,2.988,3.629l-0.277,0.271
	h-3.986c0.068,1.307,0.623,1.955,1.512,1.955c1.023,0,1.412-0.518,1.424-1.17l1.389,0.229
	C201.803,38.914,200.982,39.836,199.156,39.836"/>
<path fill="#FFFFFF" d="M208.443,35.963l-1.688,0.148c0.164-0.475,0.318-1.006,0.318-1.359c0-0.555-0.223-0.785-0.484-0.785
	c-0.652,0-1.135,1.414-1.135,2.973v2.691h-2.021v-6.729h1.885v1.146c0.342-0.83,0.844-1.336,1.852-1.336
	c0.973,0,1.68,0.777,1.68,1.66C208.848,34.85,208.656,35.502,208.443,35.963"/>
<path fill="#FFFFFF" d="M214.691,39.631V35.01c0-0.443-0.361-0.924-0.928-0.924c-0.762,0-1.555,0.967-1.555,2.609v2.936h-2.074
	v-6.729h1.938v1.158c0.273-0.559,0.939-1.348,2.172-1.348c1.771,0,2.521,1.32,2.521,1.852v5.064L214.691,39.631L214.691,39.631z"/>
<path fill="#FFFFFF" d="M222.363,36.426c-0.307,0.246-0.727,0.383-1.137,0.408c-0.961,0.08-1.191,0.584-1.191,0.992
	c0,0.404,0.289,0.758,0.73,0.758c0.934,0,1.598-0.611,1.598-1.588V36.426L222.363,36.426z M224.354,39.836
	c-1.094,0-1.719-0.479-1.854-1.062c-0.316,0.613-1.15,1.033-2.244,1.033c-1.453,0-2.27-0.697-2.27-1.766
	c0-1.307,0.846-2.092,2.82-2.162c1.25-0.039,1.557-0.504,1.557-1.043c0-0.627-0.586-0.939-1.097-0.939
	c-0.929,0-1.231,0.367-1.231,0.723c0,0.135,0.029,0.258,0.068,0.391l-1.51,0.412c-0.141-0.191-0.227-0.477-0.227-0.602
	c0-1.004,0.656-2.105,2.963-2.105c2.191,0,3.076,1.266,3.076,2.096v3.123c0,0.559,0.459,0.693,0.682,0.693
	c0.182,0,0.352-0.029,0.541-0.096v1.127C225.227,39.768,224.73,39.836,224.354,39.836"/>
<path fill="#FFFFFF" d="M229.088,39.809c-1.688,0-2.289-0.854-2.289-1.588v-3.955h-1.42V32.91h1.42v-2.477h2.08v2.477h1.844v1.355
	h-1.844V37.5c0,0.543,0.189,0.936,0.932,0.936c0.316,0,1.023-0.135,1.219-0.18v1.223C230.682,39.629,230.033,39.809,229.088,39.809"
	/>
<path fill="#FFFFFF" d="M232.062,39.631h2.096v-6.729h-2.096V39.631z M232.062,32.203h2.096v-2.016h-2.096V32.203z"/>
<path fill="#FFFFFF" d="M239.08,34.02c-1.303,0-1.525,1.525-1.525,2.24c0,1.551,0.891,2.273,1.623,2.273
	c0.812,0,1.508-0.625,1.508-2.242C240.686,35.244,240.289,34.02,239.08,34.02 M239.137,39.836c-2.355,0-3.67-1.576-3.67-3.465
	c0-1.754,1.178-3.656,3.613-3.656c2.354,0,3.684,1.67,3.684,3.656C242.764,38.584,241.061,39.836,239.137,39.836"/>
<path fill="#FFFFFF" d="M248.539,39.631V35.01c0-0.443-0.357-0.924-0.926-0.924c-0.762,0-1.553,0.967-1.553,2.609v2.936h-2.074
	v-6.729h1.938v1.158c0.271-0.559,0.938-1.348,2.172-1.348c1.771,0,2.52,1.32,2.52,1.852v5.064L248.539,39.631L248.539,39.631z"/>
<path fill="#FFFFFF" d="M256.082,36.426c-0.307,0.246-0.725,0.383-1.139,0.408c-0.955,0.08-1.188,0.584-1.188,0.992
	c0,0.404,0.289,0.758,0.729,0.758c0.934,0,1.6-0.611,1.6-1.588v-0.57H256.082L256.082,36.426z M258.076,39.836
	c-1.096,0-1.721-0.479-1.854-1.062c-0.318,0.613-1.148,1.033-2.24,1.033c-1.457,0-2.271-0.697-2.271-1.766
	c0-1.307,0.844-2.092,2.82-2.162c1.248-0.039,1.557-0.504,1.557-1.043c0-0.627-0.584-0.939-1.1-0.939
	c-0.926,0-1.229,0.367-1.229,0.723c0,0.135,0.027,0.258,0.066,0.391l-1.51,0.412c-0.137-0.191-0.227-0.477-0.227-0.602
	c0-1.004,0.654-2.105,2.965-2.105c2.189,0,3.076,1.266,3.076,2.096v3.123c0,0.559,0.461,0.693,0.678,0.693
	c0.186,0,0.352-0.029,0.543-0.096v1.127C258.949,39.768,258.449,39.836,258.076,39.836"/>
<rect x="260.467" y="30.188" fill="#FFFFFF" width="2.078" height="9.443"/>
<path fill="#FFFFFF" d="M181.334,45.758h-1.342v5.963h1.551c1.191,0,2.547-0.445,2.547-2.836
	C184.09,46.412,182.891,45.758,181.334,45.758 M182.07,53.461h-4.279v-9.443h3.92c2.553,0,4.6,1.633,4.6,4.945
	C186.307,51.303,184.773,53.461,182.07,53.461"/>
<path fill="#FFFFFF" d="M190.781,47.674c-0.816,0-1.178,0.746-1.277,1.697h2.23C191.83,48.354,191.598,47.674,190.781,47.674
	 M190.945,53.666c-2.422,0-3.518-1.482-3.518-3.465c0-1.535,0.941-3.656,3.324-3.656c1.967,0,3.125,1.66,2.99,3.629l-0.281,0.27
	h-3.98c0.064,1.307,0.619,1.959,1.51,1.959c1.021,0,1.41-0.521,1.422-1.172l1.393,0.23C193.59,52.74,192.771,53.666,190.945,53.666"
	/>
<polygon fill="#FFFFFF" points="198.729,53.461 196.83,53.461 194.033,46.734 196.209,46.734 197.801,51.166 199.459,46.734 
	201.381,46.734 "/>
<path fill="#FFFFFF" d="M205.094,47.674c-0.814,0-1.18,0.746-1.273,1.697h2.23C206.146,48.354,205.913,47.674,205.094,47.674
	 M205.262,53.666c-2.422,0-3.52-1.482-3.52-3.465c0-1.535,0.943-3.656,3.326-3.656c1.965,0,3.125,1.66,2.984,3.629l-0.273,0.27
	h-3.986c0.07,1.307,0.621,1.959,1.514,1.959c1.02,0,1.406-0.521,1.422-1.172l1.387,0.23
	C207.908,52.74,207.086,53.666,205.262,53.666"/>
<rect x="209.539" y="44.016" fill="#FFFFFF" width="2.08" height="9.445"/>
<path fill="#FFFFFF" d="M216.514,47.852c-1.303,0-1.525,1.521-1.525,2.24c0,1.547,0.893,2.27,1.623,2.27
	c0.814,0,1.51-0.627,1.51-2.242C218.121,49.074,217.715,47.852,216.514,47.852 M216.57,53.666c-2.354,0-3.67-1.576-3.67-3.465
	c0-1.758,1.18-3.656,3.613-3.656c2.354,0,3.684,1.672,3.684,3.656C220.197,52.416,218.492,53.666,216.57,53.666"/>
<path fill="#FFFFFF" d="M225.092,47.838c-0.93,0-1.498,1.018-1.498,2.336c0,1.195,0.652,2.258,1.555,2.258
	c0.955,0,1.51-0.723,1.51-2.299C226.658,48.801,226.115,47.838,225.092,47.838 M225.547,53.666c-0.967,0-1.582-0.312-1.994-0.748
	v3.273h-2.074v-9.457h2.074v0.816c0.434-0.586,1.027-1.008,2.023-1.008c1.701,0,3.166,1.375,3.166,3.725
	C228.746,52.375,227.5,53.666,225.547,53.666"/>
<path fill="#FFFFFF" d="M239.125,53.461v-4.619c0-0.449-0.346-0.926-0.914-0.926c-0.605,0-1.453,0.752-1.453,2.381v3.162h-2.088
	V48.84c0-0.447-0.35-0.926-0.934-0.926c-0.598,0-1.451,0.752-1.451,2.518v3.027h-2.078V46.73h1.938v1.062
	c0.277-0.516,0.973-1.25,2.076-1.25c1.275,0,2.021,0.668,2.342,1.238c0.459-0.654,1.178-1.238,2.135-1.238
	c1.771,0,2.52,1.316,2.52,1.848v5.068h-2.092L239.125,53.461L239.125,53.461z"/>
<path fill="#FFFFFF" d="M245.848,47.674c-0.814,0-1.18,0.746-1.273,1.697h2.229C246.898,48.354,246.666,47.674,245.848,47.674
	 M246.012,53.666c-2.422,0-3.52-1.482-3.52-3.465c0-1.535,0.939-3.656,3.324-3.656c1.967,0,3.133,1.66,2.988,3.629l-0.275,0.27
	h-3.986c0.07,1.307,0.625,1.959,1.51,1.959c1.025,0,1.41-0.521,1.43-1.172l1.387,0.23C248.658,52.74,247.84,53.666,246.012,53.666"
	/>
<path fill="#FFFFFF" d="M254.688,53.461v-4.619c0-0.449-0.361-0.926-0.932-0.926c-0.762,0-1.549,0.967-1.549,2.611v2.932h-2.078
	v-6.727h1.939v1.156c0.275-0.557,0.938-1.346,2.172-1.346c1.771,0,2.521,1.316,2.521,1.848v5.068L254.688,53.461L254.688,53.461z"/>
<path fill="#FFFFFF" d="M261.373,53.637c-1.688,0-2.287-0.855-2.287-1.588v-3.953h-1.426v-1.361h1.426V44.26h2.078v2.475h1.842
	v1.361h-1.842v3.234c0,0.541,0.191,0.936,0.928,0.936c0.316,0,1.025-0.135,1.223-0.176v1.225
	C262.965,53.461,262.318,53.637,261.373,53.637"/>
<path fill="#FFFFFF" d="M265.145,53.666c-0.664,0-1.221-0.49-1.221-1.186c0-0.689,0.557-1.18,1.221-1.18
	c0.662,0,1.207,0.488,1.207,1.18C266.352,53.176,265.807,53.666,265.145,53.666"/>
</svg>
