<?xml version="1.0" standalone="no"?>
<!DOCTYPE svg PUBLIC "-//W3C//DTD SVG 20010904//EN"
 "http://www.w3.org/TR/2001/REC-SVG-20010904/DTD/svg10.dtd">
<svg version="1.0" xmlns="http://www.w3.org/2000/svg"
 width="1024.000000pt" height="1024.000000pt" viewBox="0 0 1024.000000 1024.000000"
 preserveAspectRatio="xMidYMid meet">
<metadata>
Created by potrace 1.11, written by Peter Selinger 2001-2013
</metadata>
<g transform="translate(0.000000,1024.000000) scale(0.100000,-0.100000)"
fill="#000000" stroke="none">
<path d="M2805 9070 c-27 -4 -75 -11 -105 -15 -80 -10 -273 -61 -365 -96 -371
-142 -664 -375 -898 -711 -26 -37 -47 -69 -47 -72 0 -3 -13 -26 -29 -50 -28
-46 -121 -248 -137 -301 -86 -282 -99 -359 -99 -600 0 -204 7 -276 43 -450 24
-113 110 -347 164 -442 10 -18 27 -50 39 -70 232 -413 662 -746 1129 -872 l95
-26 0 -242 0 -242 -70 -17 c-127 -31 -364 -128 -459 -187 -11 -7 -45 -27 -75
-46 -213 -131 -428 -344 -578 -574 -117 -179 -235 -483 -267 -687 -3 -19 -9
-48 -12 -65 -4 -16 -8 -115 -9 -220 -2 -168 7 -295 30 -400 39 -182 85 -316
160 -470 108 -222 237 -388 453 -587 84 -79 267 -200 395 -262 130 -63 312
-131 385 -142 20 -3 40 -8 44 -10 10 -6 104 -22 188 -32 83 -9 367 -9 445 1
339 42 672 182 940 395 80 64 230 211 295 290 176 216 336 557 380 816 5 28
12 62 15 76 18 82 23 273 12 430 -28 403 -206 823 -472 1109 -90 98 -99 107
-185 180 -111 96 -226 171 -374 246 -121 61 -356 146 -428 154 -3 1 -7 111 -7
245 l0 245 48 10 c53 11 178 51 231 74 19 9 58 25 85 38 28 12 52 23 55 24 20
5 129 66 196 111 256 167 482 408 619 659 15 28 31 55 35 60 14 17 99 230 124
312 91 294 105 596 41 928 -13 66 -56 214 -84 285 -223 576 -686 989 -1291
1152 -41 11 -84 21 -95 23 -134 23 -195 28 -340 30 -93 1 -192 -1 -220 -5z
m412 -952 c606 -135 924 -795 644 -1340 -129 -251 -347 -421 -629 -490 -164
-40 -407 -23 -547 38 -22 10 -42 18 -45 19 -20 4 -116 61 -170 101 -385 283
-497 811 -259 1223 114 197 309 355 529 426 30 10 64 20 75 21 11 2 40 7 65
12 76 16 246 11 337 -10z m-62 -4142 c305 -42 578 -242 711 -521 128 -269 129
-559 3 -816 -165 -337 -507 -542 -879 -526 -63 3 -128 8 -145 11 -382 80 -669
372 -745 757 -15 76 -16 260 -1 335 76 398 408 711 806 760 28 4 51 7 52 8 5
5 151 -2 198 -8z"/>
<path d="M7010 9064 c-134 -18 -147 -20 -220 -39 -534 -136 -981 -491 -1225
-972 -141 -280 -200 -530 -200 -838 1 -131 10 -279 20 -307 2 -7 7 -31 10 -52
29 -202 150 -499 286 -700 272 -404 680 -682 1159 -790 161 -36 391 -51 540
-35 41 5 95 10 120 13 169 17 369 79 565 175 309 152 555 369 746 658 66 100
169 299 169 326 0 7 4 17 9 23 9 9 66 180 75 225 43 211 50 273 50 434 0 106
-9 244 -19 295 -2 13 -7 42 -11 64 -28 193 -144 487 -264 671 -269 412 -666
694 -1145 814 -77 19 -99 23 -250 40 -103 12 -306 10 -415 -5z m440 -947 c191
-50 310 -117 447 -252 178 -175 269 -386 278 -640 15 -450 -299 -848 -745
-940 -109 -23 -288 -23 -389 -1 -177 39 -355 140 -477 268 -90 96 -137 167
-184 275 -33 78 -46 120 -68 228 -8 42 -8 261 0 310 20 114 90 279 160 376
136 189 360 338 563 375 17 3 46 9 65 14 51 12 286 3 350 -13z"/>
<path d="M7065 4919 c-130 -14 -160 -19 -260 -43 -465 -114 -866 -394 -1129
-791 -160 -241 -276 -562 -303 -840 -13 -135 -7 -379 12 -477 3 -16 7 -40 9
-55 16 -123 84 -329 161 -489 146 -301 372 -557 660 -747 188 -123 481 -241
680 -273 21 -3 47 -7 59 -10 103 -20 360 -26 491 -11 260 29 558 130 773 262
87 54 146 97 246 178 39 32 162 155 211 212 45 51 165 222 165 234 0 6 3 11 8
11 4 0 12 10 18 23 6 12 26 54 46 92 101 196 169 419 195 635 10 83 10 344 0
433 -45 422 -256 846 -566 1139 -82 77 -243 208 -257 208 -3 0 -20 11 -37 24
-72 54 -279 153 -422 201 -47 16 -186 52 -230 60 -16 2 -39 7 -50 9 -100 19
-359 27 -480 15z"/>
</g>
</svg>
